<svg xmlns="http://www.w3.org/2000/svg" width="500" height="185">
  <path d="M85.672 86.021c-3.046-.574-5.868.674-6.292 2.822-.4 2.122 1.748 4.344 4.794 4.919 3.046.599 5.843-.675 6.268-2.797.424-2.147-1.723-4.345-4.77-4.944m9.014 6.093 4.445 5.443 4.595-2.921-2.422-4.87zm-62.45 2.522 4.57 2.921 4.445-5.443-6.617-2.348zm80.654-23.747c-2.647.4-4.345 1.398-9.614 19.502l2.397 4.794-1.148.7-3.396 2.196c-.55 1.973-1.124 4.12-1.748 6.418-7.341-4.22-18.653-6.917-31.387-6.917-12.71 0-24.047 2.697-31.388 6.917a405.998 405.998 0 0 0-1.723-6.418l-3.42-2.197-1.124-.699.599-1.199 1.773-3.595c-5.244-18.104-6.942-19.127-9.614-19.502l-.15-.5 9.739-3.12.174.624c-2.447 1.798-3.27 4.744-2.147 8.215 2.597-1.124 4.095-3.57 3.795-5.793.075 0 .65-.175.65-.175l3.27 10.812s-.474.15-.523.15c-1.299-1.848-3.521-2.897-6.093-2.447 2.172 4.32 4.245 6.717 8.94 5.868 5.068-.924 6.342-5.169 5.193-7.416-.824-1.648-1.723-1.848-2.722-1.523-.974.35-1.573 1.747-.699 3.82-1.898-.375-3.87-2.872-4.07-5.119-.225-2.222 1.698-3.745 3.296-3.895 1.523-.15 2.896.35 4.145 1.947-2.147-4.394-3.371-7.865-.674-12.11 3.52 2.247 4.394 6.317 3.72 11.736 1.524-4.77 5.594-5.044 7.391-2.148 1.773 2.922-.449 6.393-1.673 7.566.625-2.247-.324-3.97-2.372-3.545-2.047.45-2.072 4.719.574 6.941 2.647 2.198 6.667 1.848 9.29-.1 2.446-1.797 3.32-3.795 3.82-7.765-3.321.3-5.893 2.297-6.243 4.769-.051 0-.599.025-.599.025l-.424-12.335s.699-.05.774-.05c.499 2.522 3.22 4.62 6.667 4.694-.25-3.795-2.422-6.767-5.244-7.266v-.7H75.16v.7c-2.847.5-5.02 3.47-5.244 7.266 3.421-.075 6.143-2.172 6.667-4.694.051 0 .75.05.75.05l-.4 12.335s-.574-.025-.625-.025c-.325-2.472-2.896-4.47-6.242-4.77.499 3.971 1.398 5.969 3.82 7.766 2.622 1.948 6.667 2.298 9.314.1 2.647-2.222 2.597-6.492.549-6.941-2.048-.425-2.971 1.273-2.347 3.545-1.274-1.173-3.471-4.644-1.673-7.566 1.773-2.896 5.843-2.621 7.366 2.148-.674-5.419.225-9.489 3.72-11.736 2.697 4.245 1.474 7.716-.674 12.11 1.274-1.598 2.647-2.097 4.17-1.947 1.598.15 3.496 1.673 3.296 3.895-.225 2.247-2.197 4.744-4.095 5.119.874-2.073.275-3.47-.699-3.82-.974-.325-1.873-.125-2.722 1.523-1.148 2.247.125 6.492 5.194 7.416 4.72.849 6.767-1.548 8.94-5.868-2.572-.45-4.795.6-6.068 2.447-.075 0-.524-.15-.524-.15l3.246-10.812s.599.175.649.175c-.275 2.222 1.198 4.67 3.795 5.793 1.124-3.471.325-6.417-2.122-8.215l.15-.625 9.738 3.122-.15.5zm-87.395-7.616c1.098 0 1.947.874 1.947 1.948 0 1.074-.849 1.923-1.947 1.923a1.908 1.908 0 0 1-1.923-1.923c0-1.074.849-1.948 1.923-1.948m2.347-4.544c1.073 0 1.947.849 1.947 1.922a1.95 1.95 0 0 1-1.947 1.948 1.929 1.929 0 0 1-1.923-1.948c0-1.073.849-1.922 1.923-1.922m2.821-4.32c1.074 0 1.923.874 1.923 1.948a1.908 1.908 0 0 1-1.923 1.922 1.929 1.929 0 0 1-1.947-1.922 1.95 1.95 0 0 1 1.947-1.948m3.222-3.995c1.073 0 1.922.849 1.922 1.922a1.929 1.929 0 0 1-1.922 1.948 1.95 1.95 0 0 1-1.948-1.948c0-1.073.874-1.922 1.948-1.922m3.595-3.646a1.95 1.95 0 0 1 1.948 1.948 1.929 1.929 0 0 1-1.948 1.922 1.908 1.908 0 0 1-1.923-1.922c0-1.074.85-1.948 1.923-1.948m3.995-3.221c1.074 0 1.948.849 1.948 1.948a1.929 1.929 0 0 1-1.948 1.922 1.929 1.929 0 0 1-1.947-1.922c0-1.1.874-1.948 1.947-1.948m4.295-2.797c1.099 0 1.948.874 1.948 1.948a1.934 1.934 0 0 1-1.948 1.948 1.929 1.929 0 0 1-1.922-1.948c0-1.074.849-1.948 1.922-1.948m4.595-2.272a1.95 1.95 0 0 1 1.947 1.948 1.929 1.929 0 0 1-1.947 1.922 1.929 1.929 0 0 1-1.948-1.922 1.95 1.95 0 0 1 1.948-1.948m4.819-1.748c1.074 0 1.948.85 1.948 1.923a1.934 1.934 0 0 1-1.948 1.948c-1.074 0-1.923-.85-1.923-1.948 0-1.074.85-1.923 1.923-1.923m3.57 8.59C47.969 48.017 38.88 55.358 33.436 65.246l-3.52 1.149C35.482 54.659 45.67 45.869 57.93 42.698c.3.824.574 1.698.824 2.622m.624-6.617c.175-.075.35-.125.524-.125.5 0 .974.275 1.174.749 3.096 6.742 3.546 16.056 3.57 21.025h-2.596c0-8.19-1.174-15.257-3.296-19.951-.3-.65 0-1.424.624-1.698zm10.263 1.523a3.414 3.414 0 0 0-1.673-.45c-.6 0-1.174.175-1.648.45a2.007 2.007 0 0 1-.45-1.249c0-1.173.95-2.097 2.098-2.097a2.11 2.11 0 0 1 2.097 2.097c0 .475-.174.9-.424 1.249zm-.175 4.445a3.31 3.31 0 0 0-1.498-.35c-.524 0-1.024.125-1.473.35a2.135 2.135 0 0 1-.599-1.499c0-1.148.924-2.097 2.072-2.097 1.174 0 2.098.949 2.098 2.097 0 .575-.225 1.124-.599 1.499m-1.498 5.118a2.073 2.073 0 0 1-2.073-2.097c0-1.149.924-2.073 2.073-2.073 1.173 0 2.097.924 2.097 2.073a2.078 2.078 0 0 1-2.097 2.097m2.097 8.44a2.094 2.094 0 0 1-2.097 2.098c-1.149 0-2.073-.949-2.073-2.098 0-1.148.924-2.097 2.073-2.097 1.173 0 2.097.949 2.097 2.097m-2.097-3.17a2.073 2.073 0 0 1-2.073-2.098c0-1.149.924-2.098 2.073-2.098 1.173 0 2.097.949 2.097 2.098a2.078 2.078 0 0 1-2.097 2.097M60.928 16.53h.7c.324 1.748 2.397 3.147 5.093 3.496-.35-2.672-1.748-4.77-3.496-5.094v-.674h9.514v.674c-1.748.325-3.146 2.397-3.47 5.094 2.671-.35 4.769-1.748 5.068-3.496h.7v9.539h-.7c-.3-1.748-2.397-3.146-5.069-3.496.325 2.672 1.748 4.77 3.471 5.094v.674h-3.396c.15.125.3.275.425.425a6.78 6.78 0 0 1 5.019 6.542 6.816 6.816 0 0 1-4.12 6.267 3.688 3.688 0 0 0 1.048-2.572 3.73 3.73 0 0 0-3.72-3.72 3.73 3.73 0 0 0-3.72 3.72c0 1 .399 1.898 1.048 2.572a6.816 6.816 0 0 1-4.12-6.267 6.78 6.78 0 0 1 5.019-6.542c.124-.15.25-.3.424-.425h-3.42v-.674c1.772-.325 3.17-2.397 3.495-5.094-2.672.35-4.77 1.748-5.069 3.496h-.699v-9.539zm15.107 22.074c.175 0 .375.025.55.125.649.3.923 1.048.624 1.698-2.123 4.694-3.296 11.76-3.296 19.926h-2.597c0-4.97.474-14.258 3.57-21 .226-.474.675-.75 1.174-.75zm30.014 27.792-3.52-1.15c-5.47-9.887-14.558-17.203-25.32-19.925.25-.924.524-1.798.824-2.622 12.26 3.171 22.448 11.96 28.016 23.697M80.753 36.73c1.074 0 1.948.85 1.948 1.923a1.934 1.934 0 0 1-1.948 1.948c-1.073 0-1.922-.85-1.922-1.948 0-1.074.849-1.923 1.922-1.923m4.844 1.748c1.074 0 1.923.874 1.923 1.948a1.908 1.908 0 0 1-1.923 1.922c-1.098 0-1.947-.849-1.947-1.922 0-1.074.849-1.948 1.947-1.948m4.57 2.272c1.074 0 1.923.874 1.923 1.948a1.929 1.929 0 0 1-1.923 1.948 1.95 1.95 0 0 1-1.948-1.948 1.95 1.95 0 0 1 1.948-1.948m4.32 2.797c1.073 0 1.922.849 1.922 1.948a1.908 1.908 0 0 1-1.922 1.922c-1.099 0-1.948-.849-1.948-1.922 0-1.1.85-1.948 1.948-1.948m3.97 3.221a1.95 1.95 0 0 1 1.948 1.948 1.929 1.929 0 0 1-1.948 1.922 1.929 1.929 0 0 1-1.948-1.922 1.95 1.95 0 0 1 1.948-1.948m3.62 3.646c1.074 0 1.923.849 1.923 1.922a1.929 1.929 0 0 1-1.922 1.948 1.95 1.95 0 0 1-1.948-1.948c0-1.073.874-1.922 1.948-1.922m5.168 5.943a1.929 1.929 0 0 1-1.947 1.922 1.929 1.929 0 0 1-1.948-1.922 1.95 1.95 0 0 1 1.948-1.948 1.95 1.95 0 0 1 1.947 1.948m2.797 4.294a1.95 1.95 0 0 1-1.948 1.948 1.929 1.929 0 0 1-1.922-1.948c0-1.073.849-1.922 1.922-1.922 1.074 0 1.948.849 1.948 1.922m2.347 4.57a1.929 1.929 0 0 1-1.947 1.923 1.929 1.929 0 0 1-1.948-1.923 1.95 1.95 0 0 1 1.948-1.948 1.95 1.95 0 0 1 1.947 1.948m19.876-63.549H3.671S0 1.672 0 5.318v108.095s0 3.67 3.67 3.67h128.595s3.671 0 3.671-3.67V5.218s0-3.546-3.67-3.546M50.264 86.021c-3.047.6-5.194 2.797-4.77 4.944.425 2.122 3.222 3.396 6.268 2.797 3.046-.575 5.219-2.797 4.794-4.92-.424-2.147-3.22-3.395-6.292-2.821m10.637 2.147 7.067 4.994 7.066-4.994-7.066-4.994zm424.24 95.536h-4.644l5.094-10.413-10.412-26.168h4.544l6.867 19.276c.674 1.798.774 3.022.999 3.571h.124c.2-.674.425-1.773 1.099-3.57l6.992-19.277h3.87zm-19.826-9.863c-7.765 0-12.085-5.993-12.085-13.634 0-7.64 4.195-13.634 12.085-13.634 2.647 0 5.094.55 6.967 1.773l-1.099 2.322c-1.448-.874-3.32-1.448-5.443-1.448-5.643 0-8.315 4.994-8.315 10.862 0 5.893 2.672 10.887 8.315 10.887 2.122 0 3.895-.45 5.443-1.448l1.224 2.547c-1.998 1.223-4.445 1.773-7.092 1.773m-21.399-.55v-17.179c0-4.894-2.772-6.992-7.666-6.992-1.997 0-4.195.325-5.968 1v23.171h-4.22v-24.845c2.872-1.223 6.643-1.872 10.188-1.872 7.317 0 11.761 2.771 11.761 9.538v17.18zm-35.033-24.27c-4.67 0-8.44 3.32-8.44 10.412v.1l16.081-1.973c.125-5.993-2.996-8.54-7.64-8.54m-8.216 12.735c.45 6.093 4.32 9.214 10.088 9.214 2.772 0 5.668-.574 7.766-1.573l1.098 2.572c-2.547 1.198-5.868 1.773-9.189 1.773-8.09 0-13.758-4.345-13.758-13.759 0-9.413 5.343-13.534 12.435-13.534 7.091 0 11.636 4.12 11.636 12.76zm-13.409-11.76c-1.448-.65-3.096-.974-4.994-.974-6.417 0-9.538 4.644-9.538 11.51 0 6.892 3.12 10.663 9.214 10.663 1.872 0 4.22-.45 5.418-1.124zm-7.64 34.258c-3.447 0-7.117-.649-9.764-1.872l1.224-2.672c2.222.999 5.418 1.673 8.315 1.673 4.969 0 7.965-2.672 7.965-7.317v-1.548c-1.648.774-4.195 1.224-6.642 1.224-7.416 0-12.085-5.119-12.085-13.084 0-7.99 4.769-14.083 13.983-14.083 3.42 0 6.292.549 8.964 1.772v25.595c-.1 6.767-4.77 10.312-11.96 10.312m-27.942-36.68c-.574-1.449-.999-2.897-1.348-4.32h-.1c-.45 1.423-.874 2.871-1.448 4.32l-4.97 12.859h12.835zm9.963 25.718-3.995-10.312h-14.733l-3.995 10.312h-4.32l13.959-33.385h3.895l13.958 33.385zm-54.535-24.27c-4.644 0-8.44 3.32-8.44 10.412v.1l16.081-1.973c.125-5.993-2.996-8.54-7.64-8.54m-8.216 12.735c.45 6.093 4.345 9.214 10.088 9.214 2.772 0 5.668-.574 7.766-1.573l1.099 2.572c-2.547 1.198-5.744 1.773-9.19 1.773-8.09 0-13.758-4.345-13.758-13.759 0-9.413 5.344-13.534 12.435-13.534 7.092 0 11.636 4.12 11.636 12.76zm-13.409 11.536v-17.628c0-4.22-2.322-6.543-6.642-6.543-2.671 0-4.669 1.1-6.317 2.772v21.4h-4.22v-18.853c0-3.321-2.447-5.319-6.992-5.319-2.222 0-4.22.325-5.967 1v23.171h-4.12v-24.845c2.896-1.098 6.442-1.873 10.087-1.873 4.32 0 7.441 1.224 9.44 3.322 2.321-1.998 5.093-3.322 8.639-3.322 6.417 0 10.312 3.222 10.312 9.09v17.628zm-44.896-26.168h4.22v26.168h-4.22zm2.098-4.994c-1.424 0-2.647-.999-2.647-2.322 0-1.324 1.223-2.323 2.647-2.323 1.448 0 2.672 1.1 2.672 2.323-.125 1.323-1.224 2.322-2.672 2.322m-7.316 7.44c-1.1-.224-2.323-.448-3.646-.448-1.773 0-3.546.225-4.67.774v23.272h-4.194v-24.945c2.996-1.199 5.967-1.773 11.286-1.773.8 0 1.573 0 2.122.124zm-24.945 24.272c-9.739 0-15.282-7.766-15.282-17.304 0-9.514 5.643-17.28 15.406-17.28 3.097 0 5.768.55 7.741 1.773l-1.198 2.547c-1.549-.874-3.896-1.323-6.093-1.323-7.566 0-11.212 6.542-11.212 14.283 0 7.765 3.77 14.207 11.212 14.207 2.197 0 4.544-.549 6.093-1.348l1.198 2.672c-2.097 1.099-4.744 1.773-7.865 1.773m-38.13-.674h4.22v-38.005h-4.22zm-10.412-14.858c-8.215.9-13.534 2.123-13.534 7.766 0 3.67 3.096 5.344 7.766 5.344 2.097 0 4.32-.35 5.868-1.024v-12.086zm-5.993 15.532c-6.867 0-11.636-2.322-11.636-7.641 0-7.117 7.965-9.09 17.629-9.863v-1.573c0-3.97-2.547-5.544-6.992-5.544-2.672 0-5.543.574-7.765 1.573l-1-2.447c2.673-1.223 5.869-1.773 9.09-1.773 6.542 0 10.637 2.423 10.637 8.54v17.055c-2.547.999-6.093 1.673-9.963 1.673m-20.725-.55v-17.179c0-4.894-2.772-6.991-7.666-6.991-1.997 0-4.22.324-5.968.998v23.173h-4.22v-24.846c2.872-1.223 6.642-1.872 10.188-1.872 7.316 0 11.761 2.771 11.761 9.538v17.18zm-35.158-24.17c-5.643 0-7.99 5.094-7.99 10.986 0 5.868 2.347 10.962 7.99 10.962 5.668 0 7.99-4.994 7.99-10.962.1-5.992-2.222-10.986-7.99-10.986m0 24.72c-7.99 0-12.185-5.868-12.185-13.634 0-7.765 4.195-13.633 12.185-13.633s12.21 5.868 12.21 13.633c.1 7.641-4.22 13.634-12.21 13.634m-21.724-26.718h4.22v26.169h-4.22zm2.098-4.994c-1.424 0-2.647-.999-2.647-2.322 0-1.324 1.223-2.322 2.647-2.322 1.448 0 2.671 1.098 2.671 2.322 0 1.323-1.223 2.322-2.671 2.322m-9.963 31.612c-5.544 0-7.441-3.446-7.441-6.767V149.57H58.78v-2.447h4.195v-6.093l4.12-1.223v7.316h5.868v2.447h-5.868V167.2c0 1.998 1.548 3.87 4.544 3.87.425 0 .874 0 1.423-.1v2.423c-.649.225-1.648.35-2.646.35M50.664 158.31c-8.19.899-13.508 2.122-13.508 7.765 0 3.671 3.096 5.344 7.74 5.344 2.123 0 4.345-.35 5.893-1.024zm-5.868 15.531c-6.866 0-11.636-2.322-11.636-7.64 0-7.117 7.99-9.09 17.63-9.864v-1.573c0-3.97-2.548-5.543-6.992-5.543-2.647 0-5.544.574-7.766 1.573l-.999-2.447c2.672-1.224 5.893-1.773 9.114-1.773 6.517 0 10.637 2.422 10.637 8.54v17.054c-2.547.999-6.217 1.673-9.988 1.673m-20.85-.55L5.893 147.574c-1.223-1.773-1.898-2.897-2.222-3.546h-.1c0 .774.2 2.098.2 4.195v24.97H0v-33.385h4.67l17.404 24.62c.873 1.324 1.772 2.647 2.222 3.546h.1c0-.774-.225-1.897-.225-4.095v-24.07h3.67v33.384zm362.415-66.195-7.74-16.63c-.675-1.548-1.574-1.548-3.122-.874-7.316 3.87-15.73 6.767-26.268 6.767-20.276 0-35.907-15.306-35.907-37.255 0-21.949 16.28-37.155 35.682-37.155 10.537 0 18.303 3.22 25.395 6.767 1.323.674 2.646.549 3.446-1l7.74-16.28c.674-1.348.55-2.547-1.198-3.545C376.499 3.895 365.86 0 349.555 0c-34.583 0-61.85 25.395-61.85 59.104 0 36.456 24.046 59.529 61.301 59.529 16.08 0 27.168-3.77 36.157-8.315 1.548-.675 1.872-1.673 1.198-3.222m-110.192 7.317V4.119c0-1.348-1.224-2.572-2.547-2.572h-18.303c-1.324 0-2.547 1.224-2.547 2.572v72.388L197.338 4.22c-1.548-1.997-2.547-2.672-4.544-2.672h-16.955c-1.548 0-2.647 1.224-2.647 2.572v110.293c0 1.348 1.199 2.572 2.647 2.572h18.178c1.324 0 2.547-1.224 2.547-2.572V42.249l55.434 72.163c1.548 2.222 2.671 2.572 4.769 2.572h16.955c1.223 0 2.447-1.224 2.447-2.572m169.846-83.7-15.082 43.473h29.839zm-28.167 83.5c-.649 1.973-1.972 2.872-4.195 2.872h-18.977c-1.648 0-2.322-.9-2.322-1.998 0-.55.225-.999.35-1.673L432.256 3.895c.574-1.998 1.898-2.772 4.12-2.772h20.176c2.222 0 3.546.65 4.095 2.772l39.028 109.518c.125.674.325 1.224.325 1.673 0 1.224-.65 1.998-2.322 1.998h-19.502c-2.347 0-3.77-.9-4.22-2.872l-7.216-20.525h-41.9zm0 0"/>
</svg>
